<?xml version="1.0"?>
<VTKFile type="UnstructuredGrid" version="2.2">
  <UnstructuredGrid>
    <Piece NumberOfPoints="98" NumberOfCells="162">
      <Points>
        <DataArray type="Float64" NumberOfComponents="3" format="ascii">-2.403703357979461e-16 -1.01592457719801e-16 0 1.830127018922199 1.830127018922196 0 -7.903147598929961e-17 2.499999999999996 0 2.500000000000006 -1.201851678989729e-16 0 2.068315661144281 3.867240136789515 0 3.750000000000008 2.165063509461099 0 -9.037764141747602e-17 4.999999999999995 0 5.000000000000012 -1.201851678989728e-16 0 2.365253702035842 6.615480521539764 0 4.021778788822008 5.001466990658765 0 6.250000000000009 2.165063509461096 0 7.500000000000012 -1.201851678989726e-16 0 -6.460311032886292e-17 7.499999999999993 0 5.203216642489105 3.506135412097213 0 8.750000000000009 2.165063509461094 0 10.00000000000001 -3.608785845636918e-17 0 12.50000000000001 -1.160107411096041e-16 0 11.25000000000001 2.165063509461094 0 1.690714024750219 8.749999999999993 0 4.999999999999994 7.00961894323344 0 6.266353546128385 4.952578483551955 0 7.499999999999988 3.50480947161673 0 13.74378268030395 2.089863721728752 0 15.00000000000001 -1.031681947355149e-16 0 -8.461721328403107e-17 9.999999999999989 0 3.75142080358171 9.100049511096399 0 10 3.504809471616716 0 12.50000000000001 3.504809471616707 0 16.16292557637225 1.858512973469406 0 17.5 -1.015924577198012e-16 0 2.214498783515613 11.28189726212458 0 6.246242139819283 9.173668633919768 0 7.497465994635823 7.008859964875642 0 8.749999999999988 4.844555433772348 0 14.9792885321255 3.49289994769469 0 18.1698729810778 1.830127018922199 0 20 -2.403703357979461e-16 0 -5.91022076407331e-17 12.49999999999999 0 4.999999999999995 11.33974596215563 0 11.24999999999998 4.844555433772346 0 13.71762684596312 4.993108656488503 0 17.58460926472625 3.738187152470799 0 20 2.500000000000006 0 1.546751090515889 13.74999999999999 0 3.557464387442454 13.53571903895627 0 8.729986844279905 9.169358518403754 0 7.449333298945511 11.36752268073093 0 9.978293291404388 7.002447057841409 0 15.84654751300153 5.125783592159252 0 -8.366978503521666e-17 14.99999999999999 0 6.029680286032826 13.64234036005766 0 12.40924106286784 6.962434705458909 0 15.11627643165389 7.154722204142257 0 17.8349364905389 6.250000000000012 0 20 5.000000000000012 0 2.189703843774153 15.93315868804661 0 4.711913645861274 15.72947004946786 0 11.13977290414649 9.13697507463313 0 9.99014816153298 11.34550973447235 0 8.699942362008064 13.53451287537642 0 -6.993015731133528e-17 17.49999999999999 0 7.45885085768213 15.68413266942679 0 13.43680155469203 9.15448272683437 0 17.57481718094953 8.622423407332251 0 20 7.500000000000012 0 1.830127018922197 18.1698729810778 0 3.822667122569773 17.94346172881162 0 6.19711987729239 17.85928507566947 0 12.26110908168974 11.34596408466422 0 11.18420001761992 13.54288803030165 0 9.990077032279101 15.6749683893366 0 15.54845272963312 9.4689442737806 0 -1.607445552193319e-17 20 0 8.738815624281337 17.83942975063272 0 14.60342863158554 11.30892498507137 0 17.25753891044985 11.23596493586143 0 20 10.00000000000001 0 2.499999999999996 20 0 4.999999999999995 20 0 7.499999999999993 20 0 13.47852020618074 13.55201532633939 0 12.4447653575581 15.70292986345701 0 11.24999999999999 17.8349364905389 0 9.999999999999989 20 0 15.63814930686777 13.09617856294823 0 20 12.50000000000001 0 15.29334500402074 15.41867987786372 0 13.74823442946629 17.84295872334249 0 12.49999999999999 20 0 17.83493649053891 13.75000000000001 0 20 15.00000000000001 0 16.2394065767978 17.88306988736042 0 14.99999999999999 20 0 17.91800971557219 16.24135644193358 0 20 17.5 0 17.49999999999999 20 0 18.1698729810778 18.16987298107781 0 20 20 0 </DataArray>
      </Points>
      <Cells>
        <DataArray type="Int32" Name="connectivity" format="ascii">0 1 2 3 1 0 2 1 4 5 1 3 2 4 6 4 1 5 7 5 3 6 4 8 5 9 4 7 10 5 11 10 7 6 8 12 4 9 8 5 13 9 10 13 5 14 10 11 15 14 11 16 17 15 8 18 12 8 9 19 9 13 20 21 13 10 14 21 10 15 17 14 22 17 16 23 22 16 12 18 24 25 18 8 19 25 8 19 9 20 20 13 21 14 26 21 17 26 14 22 27 17 23 28 22 29 28 23 24 18 30 30 18 25 31 25 19 19 20 32 20 21 33 21 26 33 17 27 26 22 34 27 28 34 22 29 35 28 36 35 29 24 30 37 25 38 30 31 19 32 31 38 25 20 33 32 33 26 39 26 27 39 27 34 40 41 34 28 28 35 41 42 35 36 30 43 37 38 44 30 45 31 32 31 46 38 32 33 47 47 33 39 39 27 40 40 34 48 48 34 41 41 35 42 37 43 49 44 43 30 38 50 44 45 32 47 45 46 31 38 46 50 47 39 51 39 40 51 40 48 52 53 48 41 54 41 42 49 43 55 55 43 44 50 56 44 45 47 57 58 46 45 50 46 59 47 51 57 40 52 51 52 48 53 54 53 41 49 55 60 44 56 55 50 61 56 58 45 57 59 46 58 59 61 50 51 62 57 52 62 51 52 53 63 64 53 54 55 65 60 56 66 55 56 61 67 58 57 68 59 58 69 70 61 59 57 62 68 71 62 52 63 71 52 63 53 64 60 65 72 66 65 55 67 66 56 67 61 73 58 68 69 70 59 69 73 61 70 62 74 68 71 74 62 63 75 71 76 63 64 72 65 77 77 65 66 78 66 67 67 73 79 68 80 69 70 69 81 82 73 70 68 74 80 75 74 71 76 75 63 77 66 78 78 67 79 79 73 83 69 80 81 82 70 81 83 73 82 80 74 84 84 74 75 85 75 76 81 80 86 82 81 87 83 82 88 86 80 84 89 84 75 89 75 85 81 86 87 82 87 88 86 84 89 90 89 85 87 86 91 88 87 92 89 93 86 90 93 89 92 87 91 86 93 91 94 93 90 92 91 95 93 96 91 94 96 93 91 96 95 97 96 94 95 96 97 </DataArray>
        <DataArray type="Int32" Name="offsets" format="ascii">3 6 9 12 15 18 21 24 27 30 33 36 39 42 45 48 51 54 57 60 63 66 69 72 75 78 81 84 87 90 93 96 99 102 105 108 111 114 117 120 123 126 129 132 135 138 141 144 147 150 153 156 159 162 165 168 171 174 177 180 183 186 189 192 195 198 201 204 207 210 213 216 219 222 225 228 231 234 237 240 243 246 249 252 255 258 261 264 267 270 273 276 279 282 285 288 291 294 297 300 303 306 309 312 315 318 321 324 327 330 333 336 339 342 345 348 351 354 357 360 363 366 369 372 375 378 381 384 387 390 393 396 399 402 405 408 411 414 417 420 423 426 429 432 435 438 441 444 447 450 453 456 459 462 465 468 471 474 477 480 483 486 </DataArray>
        <DataArray type="Int8" Name="types" format="ascii">69 69 69 69 69 69 69 69 69 69 69 69 69 69 69 69 69 69 69 69 69 69 69 69 69 69 69 69 69 69 69 69 69 69 69 69 69 69 69 69 69 69 69 69 69 69 69 69 69 69 69 69 69 69 69 69 69 69 69 69 69 69 69 69 69 69 69 69 69 69 69 69 69 69 69 69 69 69 69 69 69 69 69 69 69 69 69 69 69 69 69 69 69 69 69 69 69 69 69 69 69 69 69 69 69 69 69 69 69 69 69 69 69 69 69 69 69 69 69 69 69 69 69 69 69 69 69 69 69 69 69 69 69 69 69 69 69 69 69 69 69 69 69 69 69 69 69 69 69 69 69 69 69 69 69 69 69 69 69 69 69 69 </DataArray>
      </Cells>
      <CellData>
        <DataArray type="UInt8" Name="vtkGhostType" format="ascii" RangeMin="0" RangeMax="1">0 0 0 0 0 0 0 0 0 0 0 0 0 0 0 0 0 0 0 0 0 0 0 0 0 0 0 0 0 0 0 0 0 0 0 0 0 0 0 0 0 0 0 0 0 0 0 0 0 0 0 0 0 0 0 0 0 0 0 0 0 0 0 0 0 0 0 0 0 0 0 0 0 0 0 0 0 0 0 0 0 0 0 0 0 0 0 0 0 0 0 0 0 0 0 0 0 0 0 0 0 0 0 0 0 0 0 0 0 0 0 0 0 0 0 0 0 0 0 0 0 0 0 0 0 0 0 0 0 0 0 0 0 0 0 0 0 0 0 0 0 0 0 0 0 0 0 0 0 0 0 0 0 0 0 0 0 0 0 0 0 0 </DataArray>
        <DataArray type="Int64" IdType="1" Name="vtkOriginalCellIds" format="ascii" RangeMin="0" RangeMax="161">0 1 2 3 4 5 6 7 8 9 10 11 12 13 14 15 16 17 18 19 20 21 22 23 24 25 26 27 28 29 30 31 32 33 34 35 36 37 38 39 40 41 42 43 44 45 46 47 48 49 50 51 52 53 54 55 56 57 58 59 60 61 62 63 64 65 66 67 68 69 70 71 72 73 74 75 76 77 78 79 80 81 82 83 84 85 86 87 88 89 90 91 92 93 94 95 96 97 98 99 100 101 102 103 104 105 106 107 108 109 110 111 112 113 114 115 116 117 118 119 120 121 122 123 124 125 126 127 128 129 130 131 132 133 134 135 136 137 138 139 140 141 142 143 144 145 146 147 148 149 150 151 152 153 154 155 156 157 158 159 160 161 </DataArray>
      </CellData>
      <PointData Scalars="u">
        <DataArray type="Int64" IdType="1" Name="vtkOriginalPointIds" format="ascii" RangeMin="0" RangeMax="97">0 1 2 3 4 5 6 7 8 9 10 11 12 13 14 15 16 17 18 19 20 21 22 23 24 25 26 27 28 29 30 31 32 33 34 35 36 37 38 39 40 41 42 43 44 45 46 47 48 49 50 51 52 53 54 55 56 57 58 59 60 61 62 63 64 65 66 67 68 69 70 71 72 73 74 75 76 77 78 79 80 81 82 83 84 85 86 87 88 89 90 91 92 93 94 95 96 97 </DataArray>
        <DataArray type="UInt8" Name="vtkGhostType" format="ascii" RangeMin="0" RangeMax="0">0 0 0 0 0 0 0 0 0 0 0 0 0 0 0 0 0 0 0 0 0 0 0 0 0 0 0 0 0 0 0 0 0 0 0 0 0 0 0 0 0 0 0 0 0 0 0 0 0 0 0 0 0 0 0 0 0 0 0 0 0 0 0 0 0 0 0 0 0 0 0 0 0 0 0 0 0 0 0 0 0 0 0 0 0 0 0 0 0 0 0 0 0 0 0 0 0 0 </DataArray>
        <DataArray type="Float64" Name="u" format="ascii">1.000001711925465 11.04828280254673 13.50002311099374 7.250012411459652 35.19116805905543 24.43717464245482 51.00008730819863 26.00004451006222 94.12720711493635 67.20427237521537 49.4354417200346 57.25009800773305 113.5001943035401 52.65589054401517 86.93690426233918 101.0001729044722 157.2502692002796 136.9369804576658 156.9766475296538 124.2623393047542 89.31700342822735 81.8119917819527 198.6291531251221 226.0003868951554 201.0003440970181 180.6835343707486 125.5613252697503 181.8164287883138 269.1528057201747 307.2505259890991 260.4586764075515 208.3198436208451 155.4523380452688 124.4933086122605 249.7859256073543 337.8421097250573 401.0006864821115 313.5005366886329 283.1748982853107 174.4956607718636 239.0355267734093 338.1668986793494 413.5007078811798 381.5174488632211 380.0857622506049 245.3611121467043 314.9299102614231 198.6275676943196 304.6656874080155 451.0007720783843 409.5827426597388 251.9360570233306 331.8828788908201 397.2102079851495 451.0007720783848 513.5299382114068 518.0357891523082 292.0591846558372 358.2424818909076 443.054165069178 613.5010502662723 548.6182729234777 349.154543160067 458.5646501576066 513.5008790737265 664.6311039059051 659.5486576928007 677.3153618709932 408.7962474472648 492.9058900332029 592.2106699463264 422.0756273576151 801.0013712522978 713.8546050140075 470.0430918657651 551.3128372942099 601.0010288672049 807.2513819518319 826.0014140504345 857.2514675481051 549.9856786957752 649.0390587368164 763.7300590572054 901.0015424448441 588.5695101009012 713.5012214588197 710.3599362924251 826.7632961696974 957.2516387406515 697.2016857418675 851.0014568485714 904.3263523551858 1026.001756435527 849.6092482242851 1013.501735036459 1107.251895529471 991.4245597773246 1201.002056022483 </DataArray>
      </PointData>
    </Piece>
  </UnstructuredGrid>
</VTKFile>
