$MeshFormat
4.1 0 8
$EndMeshFormat
$Entities
4 4 1 0
1 0 0 0 0 
2 20 0 0 0 
3 20 20 0 0 
4 0 20 0 0 
1 -9.99999993922529e-08 -1e-07 -1e-07 20.0000001 1e-07 1e-07 0 2 1 -2 
2 19.9999999 -9.99999993922529e-08 -1e-07 20.0000001 20.0000001 1e-07 0 2 2 -3 
3 -9.99999993922529e-08 19.9999999 -1e-07 20.0000001 20.0000001 1e-07 0 2 3 -4 
4 -1e-07 -9.99999993922529e-08 -1e-07 1e-07 20.0000001 1e-07 0 2 4 -1 
1 -9.99999993922529e-08 -9.99999993922529e-08 -1e-07 20.0000001 20.0000001 1e-07 1 1 4 1 2 3 4 
$EndEntities
$Nodes
9 98 1 98
0 1 0 1
1
0 0 0
0 2 0 1
2
20 0 0
0 3 0 1
3
20 20 0
0 4 0 1
4
0 20 0
1 1 0 7
5
6
7
8
9
10
11
2.500000000000006 0 0
5.000000000000013 0 0
7.500000000000012 0 0
10.00000000000001 0 0
12.50000000000001 0 0
15.00000000000001 0 0
17.5 0 0
1 2 0 7
12
13
14
15
16
17
18
20 2.500000000000006 0
20 5.000000000000013 0
20 7.500000000000012 0
20 10.00000000000001 0
20 12.50000000000001 0
20 15.00000000000001 0
20 17.5 0
1 3 0 7
19
20
21
22
23
24
25
17.49999999999999 20 0
14.99999999999999 20 0
12.49999999999999 20 0
9.999999999999989 20 0
7.499999999999993 20 0
4.999999999999995 20 0
2.499999999999996 20 0
1 4 0 7
26
27
28
29
30
31
32
0 17.49999999999999 0
0 14.99999999999999 0
0 12.49999999999999 0
0 9.999999999999989 0
0 7.499999999999993 0
0 4.999999999999995 0
0 2.499999999999996 0
2 1 0 66
33
34
35
36
37
38
39
40
41
42
43
44
45
46
47
48
49
50
51
52
53
54
55
56
57
58
59
60
61
62
63
64
65
66
67
68
69
70
71
72
73
74
75
76
77
78
79
80
81
82
83
84
85
86
87
88
89
90
91
92
93
94
95
96
97
98
8.750000000000011 2.165063509461094 0
11.24999999999999 17.8349364905389 0
2.214498783515613 11.28189726212458 0
17.57481718094953 8.622423407332253 0
17.83493649053891 13.75000000000001 0
13.74378268030395 2.089863721728752 0
6.197119877292389 17.85928507566947 0
2.365253702035842 6.615480521539765 0
17.58460926472625 3.7381871524708 0
16.2394065767978 17.88306988736042 0
2.189703843774153 15.93315868804661 0
3.750000000000009 2.165063509461099 0
13.74823442946629 17.84295872334249 0
12.4447653575581 15.70292986345701 0
9.9900770322791 15.6749683893366 0
11.18420001761992 13.54288803030165 0
8.699942362008063 13.53451287537642 0
9.99014816153298 11.34550973447235 0
12.26110908168974 11.34596408466422 0
11.13977290414649 9.13697507463313 0
8.729986844279903 9.169358518403753 0
9.978293291404388 7.002447057841409 0
12.40924106286784 6.96243470545891 0
7.497465994635821 7.00885996487564 0
6.246242139819284 9.173668633919769 0
11.24999999999998 4.844555433772346 0
4.999999999999993 7.009618943233439 0
6.266353546128385 4.952578483551955 0
13.71762684596312 4.993108656488503 0
15.11627643165389 7.154722204142258 0
3.751420803581711 9.100049511096401 0
4.999999999999995 11.33974596215563 0
3.557464387442454 13.53571903895627 0
6.029680286032827 13.64234036005766 0
4.711913645861275 15.72947004946786 0
15.29334500402074 15.41867987786372 0
6.25000000000001 2.165063509461097 0
17.8349364905389 6.25000000000001 0
15.54845272963312 9.468944273780602 0
17.25753891044985 11.23596493586143 0
15.63814930686777 13.09617856294823 0
11.25000000000001 2.165063509461094 0
8.738815624281335 17.83942975063272 0
7.449333298945509 11.36752268073093 0
7.458850857682128 15.68413266942679 0
8.749999999999986 4.844555433772347 0
17.91800971557219 16.24135644193358 0
2.068315661144281 3.867240136789515 0
16.16292557637225 1.858512973469406 0
3.822667122569772 17.94346172881162 0
15.84654751300153 5.125783592159252 0
4.021778788822007 5.001466990658764 0
13.47852020618074 13.55201532633939 0
1.690714024750219 8.749999999999991 0
13.43680155469203 9.154482726834372 0
1.546751090515889 13.74999999999999 0
18.1698729810778 18.16987298107781 0
1.830127018922198 1.830127018922195 0
1.830127018922196 18.1698729810778 0
18.1698729810778 1.830127018922198 0
14.60342863158554 11.30892498507137 0
7.499999999999988 3.50480947161673 0
10 3.504809471616716 0
12.50000000000001 3.504809471616706 0
5.203216642489104 3.506135412097212 0
14.9792885321255 3.492899947694689 0
$EndNodes
$Elements
1 162 1 162
2 1 2 162
1 37 79 68 
2 68 73 37 
3 62 70 36 
4 59 63 40 
5 36 71 62 
6 63 86 40 
7 16 72 15 
8 65 67 43 
9 67 77 39 
10 43 88 65 
11 37 72 16 
12 15 72 36 
13 64 65 35 
14 63 64 35 
15 66 76 49 
16 66 77 67 
17 68 79 42 
18 36 72 71 
19 64 76 66 
20 49 77 66 
21 72 93 71 
22 73 93 72 
23 62 83 70 
24 40 84 59 
25 64 66 65 
26 44 84 80 
27 44 97 84 
28 68 85 73 
29 37 73 72 
30 66 67 65 
31 39 82 67 
32 75 77 47 
33 39 77 75 
34 47 77 49 
35 13 70 41 
36 20 45 42 
37 6 44 5 
38 13 41 12 
39 14 70 13 
40 34 45 21 
41 33 69 7 
42 20 42 19 
43 27 43 26 
44 6 69 44 
45 36 70 14 
46 34 75 47 
47 47 48 46 
48 45 68 42 
49 22 75 34 
50 34 47 46 
51 57 59 56 
52 7 69 6 
53 21 45 20 
54 49 50 48 
55 8 74 33 
56 58 61 55 
57 31 40 30 
58 50 51 48 
59 50 52 51 
60 53 54 52 
61 53 76 57 
62 54 58 55 
63 61 62 55 
64 34 46 45 
65 9 74 8 
66 38 74 9 
67 15 36 14 
68 22 34 21 
69 47 49 48 
70 49 76 50 
71 50 53 52 
72 50 76 53 
73 54 55 52 
74 54 78 58 
75 59 60 56 
76 57 63 59 
77 57 76 64 
78 8 33 7 
79 10 38 9 
80 39 75 23 
81 29 35 28 
82 60 78 56 
83 24 39 23 
84 46 68 45 
85 23 75 22 
86 53 56 54 
87 53 57 56 
88 57 64 63 
89 17 37 16 
90 56 78 54 
91 71 87 62 
92 41 98 81 
93 83 98 41 
94 18 79 17 
95 11 81 10 
96 32 80 31 
97 35 86 63 
98 25 82 24 
99 24 82 39 
100 65 88 35 
101 31 80 40 
102 10 81 38 
103 17 79 37 
104 87 93 51 
105 67 82 43 
106 46 85 68 
107 51 85 48 
108 29 86 35 
109 40 86 30 
110 62 87 55 
111 52 87 51 
112 27 88 43 
113 35 88 28 
114 2 92 11 
115 3 89 18 
116 12 92 2 
117 26 91 4 
118 5 90 1 
119 1 90 32 
120 4 91 25 
121 19 89 3 
122 51 93 85 
123 70 83 41 
124 61 83 62 
125 59 84 60 
126 71 93 87 
127 48 85 46 
128 80 84 40 
129 30 86 29 
130 55 87 52 
131 85 93 73 
132 32 90 80 
133 11 92 81 
134 18 89 79 
135 28 88 27 
136 41 92 12 
137 44 90 5 
138 42 89 19 
139 43 91 26 
140 25 91 82 
141 60 97 94 
142 94 95 78 
143 33 95 94 
144 95 96 58 
145 33 94 69 
146 58 96 61 
147 74 96 95 
148 74 95 33 
149 78 95 58 
150 38 96 74 
151 60 94 78 
152 94 97 69 
153 69 97 44 
154 80 90 44 
155 79 89 42 
156 81 92 41 
157 96 98 61 
158 38 98 96 
159 82 91 43 
160 81 98 38 
161 84 97 60 
162 61 98 83 
$EndElements
